<?xml version="1.0"?>
<svg xmlns="http://www.w3.org/2000/svg" xmlns:xlink="http://www.w3.org/1999/xlink" xmlns:svgjs="http://svgjs.com/svgjs" version="1.1" width="512" height="512" x="0" y="0" viewBox="0 0 368 368" style="enable-background:new 0 0 512 512" xml:space="preserve" class=""><g transform="matrix(6.123233995736766e-17,1,-1,6.123233995736766e-17,368,0)">
<path xmlns="http://www.w3.org/2000/svg" style="" d="M360,24v320c0,8.8-7.2,16-16,16H24c-8.8,0-16-7.2-16-16V24c0-8.8,7.2-16,16-16h320  C352.8,8,360,15.2,360,24z M264,312c26.48,0,48-21.52,48-48c0-14.16-6.16-26.96-16-35.68V88c0-17.68-14.32-32-32-32s-32,14.32-32,32  v140.32c-9.84,8.72-16,21.52-16,35.68C216,290.48,237.52,312,264,312z M152,104c0-26.48-21.52-48-48-48s-48,21.52-48,48  c0,14.16,6.16,26.96,16,35.68V280c0,17.68,14.32,32,32,32s32-14.32,32-32V139.68C145.84,130.96,152,118.16,152,104z" fill="#cce8ff" data-original="#cce4ff" class=""/>
<g xmlns="http://www.w3.org/2000/svg">
	<path style="" d="M344,0H24C10.768,0,0,10.768,0,24v320c0,13.232,10.768,24,24,24h320c13.232,0,24-10.768,24-24V24   C368,10.768,357.232,0,344,0z M352,344c0,4.416-3.584,8-8,8H24c-4.416,0-8-3.584-8-8V24c0-4.416,3.584-8,8-8h320   c4.416,0,8,3.584,8,8V344z" fill="#3896f3" data-original="#007aff" class=""/>
	<path style="" d="M104,48c-30.872,0-56,25.128-56,56c0,14.688,5.824,28.672,16,39.016V280c0,22.056,17.944,40,40,40   s40-17.944,40-40V143.016c10.176-10.344,16-24.328,16-39.016C160,73.128,134.872,48,104,48z M128,280c0,13.232-10.768,24-24,24   s-24-10.768-24-24V154.576c14.84,7.096,33.16,7.096,48,0V280z M130.696,133.688c-0.008,0.008-0.016,0.024-0.024,0.032   c-0.016,0.016-0.032,0.016-0.048,0.032c-14.576,13.216-38.672,13.216-53.248,0c-0.016-0.016-0.032-0.016-0.048-0.032   c-0.008-0.008-0.016-0.024-0.024-0.032C68.848,126.2,64,115.384,64,104c0-22.056,17.944-40,40-40s40,17.944,40,40   C144,115.384,139.152,126.2,130.696,133.688z" fill="#3896f3" data-original="#007aff" class=""/>
	<path style="" d="M304,224.984V88c0-22.056-17.944-40-40-40s-40,17.944-40,40v136.984   c-10.176,10.344-16,24.328-16,39.016c0,30.872,25.128,56,56,56s56-25.128,56-56C320,249.312,314.176,235.328,304,224.984z M240,88   c0-13.232,10.768-24,24-24s24,10.768,24,24v125.424c-7.424-3.552-15.6-5.424-24-5.424s-16.576,1.872-24,5.424V88z M264,304   c-22.056,0-40-17.944-40-40c0-11.384,4.848-22.2,13.304-29.688c0.008-0.008,0.016-0.024,0.024-0.032   c0.016-0.016,0.032-0.016,0.048-0.032c14.576-13.216,38.672-13.216,53.248,0c0.016,0.008,0.032,0.016,0.04,0.024   s0.016,0.024,0.024,0.04C299.152,241.8,304,252.616,304,264C304,286.056,286.056,304,264,304z" fill="#3896f3" data-original="#007aff" class=""/>
</g>
<g xmlns="http://www.w3.org/2000/svg">
</g>
<g xmlns="http://www.w3.org/2000/svg">
</g>
<g xmlns="http://www.w3.org/2000/svg">
</g>
<g xmlns="http://www.w3.org/2000/svg">
</g>
<g xmlns="http://www.w3.org/2000/svg">
</g>
<g xmlns="http://www.w3.org/2000/svg">
</g>
<g xmlns="http://www.w3.org/2000/svg">
</g>
<g xmlns="http://www.w3.org/2000/svg">
</g>
<g xmlns="http://www.w3.org/2000/svg">
</g>
<g xmlns="http://www.w3.org/2000/svg">
</g>
<g xmlns="http://www.w3.org/2000/svg">
</g>
<g xmlns="http://www.w3.org/2000/svg">
</g>
<g xmlns="http://www.w3.org/2000/svg">
</g>
<g xmlns="http://www.w3.org/2000/svg">
</g>
<g xmlns="http://www.w3.org/2000/svg">
</g>
</g></svg>
