<?xml version="1.0"?>
<svg xmlns="http://www.w3.org/2000/svg" xmlns:xlink="http://www.w3.org/1999/xlink" xmlns:svgjs="http://svgjs.com/svgjs" version="1.1" width="512" height="512" x="0" y="0" viewBox="0 0 58 58" style="enable-background:new 0 0 512 512" xml:space="preserve" class=""><g>
<polygon xmlns="http://www.w3.org/2000/svg" style="" points="51.5,14 37.5,0 6.5,0 6.5,58 51.5,58 " fill="#ffffff" data-original="#edeada" class=""/>
<g xmlns="http://www.w3.org/2000/svg">
	<path style="" d="M16.5,23h25c0.552,0,1-0.447,1-1s-0.448-1-1-1h-25c-0.552,0-1,0.447-1,1S15.948,23,16.5,23z" fill="#cfd7e6" data-original="#cec9ae" class=""/>
	<path style="" d="M16.5,15h10c0.552,0,1-0.447,1-1s-0.448-1-1-1h-10c-0.552,0-1,0.447-1,1S15.948,15,16.5,15z" fill="#cfd7e6" data-original="#cec9ae" class=""/>
	<path style="" d="M41.5,29h-25c-0.552,0-1,0.447-1,1s0.448,1,1,1h25c0.552,0,1-0.447,1-1S42.052,29,41.5,29z" fill="#cfd7e6" data-original="#cec9ae" class=""/>
	<path style="" d="M41.5,37h-25c-0.552,0-1,0.447-1,1s0.448,1,1,1h25c0.552,0,1-0.447,1-1S42.052,37,41.5,37z" fill="#cfd7e6" data-original="#cec9ae" class=""/>
	<path style="" d="M41.5,45h-25c-0.552,0-1,0.447-1,1s0.448,1,1,1h25c0.552,0,1-0.447,1-1S42.052,45,41.5,45z" fill="#cfd7e6" data-original="#cec9ae" class=""/>
</g>
<polygon xmlns="http://www.w3.org/2000/svg" style="" points="37.5,0 37.5,14 51.5,14 " fill="#cfd7e6" data-original="#cec9ae" class=""/>
<g xmlns="http://www.w3.org/2000/svg">
</g>
<g xmlns="http://www.w3.org/2000/svg">
</g>
<g xmlns="http://www.w3.org/2000/svg">
</g>
<g xmlns="http://www.w3.org/2000/svg">
</g>
<g xmlns="http://www.w3.org/2000/svg">
</g>
<g xmlns="http://www.w3.org/2000/svg">
</g>
<g xmlns="http://www.w3.org/2000/svg">
</g>
<g xmlns="http://www.w3.org/2000/svg">
</g>
<g xmlns="http://www.w3.org/2000/svg">
</g>
<g xmlns="http://www.w3.org/2000/svg">
</g>
<g xmlns="http://www.w3.org/2000/svg">
</g>
<g xmlns="http://www.w3.org/2000/svg">
</g>
<g xmlns="http://www.w3.org/2000/svg">
</g>
<g xmlns="http://www.w3.org/2000/svg">
</g>
<g xmlns="http://www.w3.org/2000/svg">
</g>
</g></svg>
